<?xml version="1.0" encoding="utf-8"?>
<!-- Generator: Adobe Illustrator 21.0.0, SVG Export Plug-In . SVG Version: 6.00 Build 0)  -->
<svg version="1.1" id="Layer_1" xmlns="http://www.w3.org/2000/svg" xmlns:xlink="http://www.w3.org/1999/xlink" x="0px" y="0px"
	 viewBox="0 0 500 500" style="enable-background:new 0 0 500 500;" xml:space="preserve">
<style type="text/css">
	.st0{fill:#43a7ff;}
	.st1{fill:#f3f9ff;}
</style>
<rect class="st0" y="0.3" width="499.7" height="499.7"/>
<path class="st1" d="M0,474.7C0,316.6,0,158.4,0,0.3c2.1-0.1,4.2-0.1,6.3-0.1c162.3,0,324.6,0,486.8,0c2.3,0,4.6,0,6.8,0.1
	c0,157.5,0,315,0,472.5c-0.9-0.6-1.9-1.1-2.8-1.7c-7.1-4.8-13.7-10.6-21.4-14.3c-28.2-13.3-56.7-26-85.2-38.6
	c-12.9-5.7-26.2-10.6-39.4-15.7c-6.1-2.4-10.5-5.9-12.5-12.6c-2.1-7.5-4.7-14.9-7.6-22.1c-1.3-3.3-3.5-6.7-6.2-8.9
	c-3.2-2.5-4.6-5.3-4.6-9.1c0-8.8-0.9-17.7,0.2-26.3c0.9-7.4,3.4-14.8,6-21.8c3.1-8.3,7.4-16.1,10.7-24.4c4-9.9,7.4-20.1,11-30.1
	c1.5-4.2,3.4-8.4,4-12.8c1.3-9,2.1-18.1,2.6-27.2c0.1-2.2-0.6-5.6-2.1-6.4c-5.4-3.1-5.6-7.9-5.6-13c0-22.1-0.2-44.3,0-66.4
	c0.2-17-5.3-31-18.9-41.8c-10.8-8.6-21.1-17.9-31.4-27.1c-5.8-5.2-5.6-9,0.2-14.2c2.2-2,4.7-3.8,7.1-5.7c-2.2-3.9-5.7-3-8.4-2.5
	c-17.4,2.9-35,5.5-52.2,9.5c-21,4.9-40.9,12.7-58.3,26.1c-18.8,14.4-30,32.2-29.2,56.9c0.7,20.5-0.1,41-0.3,61.5c0,2.4,0,5-0.7,7.2
	c-0.7,2-2,4.3-3.7,5.2c-4.1,2.2-5.5,5.3-4.9,9.6c1.4,9,2.3,18.1,4.5,26.8c3.4,13,8.6,25.6,11.6,38.7c3.2,13.7,8,26.3,16.9,37.3
	c2,2.5,3.7,6.2,3.5,9.3c-0.7,11.2-1.9,22.4-3.5,33.5c-0.3,2.3-2.6,5.3-4.7,6.1c-5.2,2-7.7,5.6-9.3,10.5c-2.4,7.2-5,14.4-7.2,21.7
	c-1.9,6.3-5.8,10-11.9,12.5c-40.9,16.8-82.1,32.8-120.5,55C17,462.7,8.6,468.9,0,474.7z"/>
</svg>
