<?xml version="1.0" encoding="utf-8"?>
<!-- Generator: Adobe Illustrator 21.0.0, SVG Export Plug-In . SVG Version: 6.00 Build 0)  -->
<svg version="1.1" id="Layer_1" xmlns="http://www.w3.org/2000/svg" xmlns:xlink="http://www.w3.org/1999/xlink" x="0px" y="0px"
	 viewBox="0 0 500 500" style="enable-background:new 0 0 500 500;" xml:space="preserve">
<style type="text/css">
	.st0{fill:#43a7ff;}
	.st1{fill:#f3f9ff;}
</style>
<rect class="st0" width="500" height="500"/>
<path class="st1" d="M0,500C0,333.3,0,166.7,0,0c166.7,0,333.3,0,500,0c0,166.6,0,333.2,0,499.7c-2.4,0-4.3,0-6.3,0
	c-0.5-2.6-0.7-5-1.6-7.2c-3.5-9.3-6.3-19-11.1-27.6c-10-17.9-25.7-30-44.2-38.1c-21.8-9.6-44-18.1-65.9-27.4
	c-8.2-3.5-16.7-7.3-23.8-12.6c-8.3-6.3-15.5-13.4-26.4-15.3c-5-0.9-8.2-5-9.8-10.1c-4.5-14.5-6.4-29.3-4.6-44.5
	c1-8.1,4.5-13.4,12.3-16.4c13.2-5.2,26.3-10.9,39.2-16.7c5.4-2.4,6.6-5.7,5-11.4c-1.6-5.5-3.3-10.9-5.1-16.4
	c-10.1-30.4-16.7-61.5-18.6-93.6c-1.1-19.2-1.3-38.5-7-57.2c-3.9-13.1-9.9-24.6-19.8-34c-14-13.3-31.1-20.6-49.7-24.7
	c-12.9-2.8-25.3-1.8-37.3,4c-8,3.9-16.4,7-24.5,10.5c-2.7,1.2-5.3,2.4-7.8,4c-10.9,7.2-17.2,17.9-22,29.6c-6.2,15.1-8.4,31-8.9,47.2
	c-1,32.3-4.7,64.2-13.8,95.3c-3.5,11.9-7.4,23.6-11,35.4c-1.6,5.4-0.5,8.2,4.4,11c1.4,0.8,2.8,1.5,4.3,2.1
	c12.4,5.2,24.7,10.5,37.1,15.6c5.8,2.4,9.2,6.5,10.2,12.7c2.7,15.9,0.9,31.5-3.9,46.9c-2,6.5-6.3,10.5-12.8,11.7
	c-7.8,1.4-13.8,5.7-19.4,10.9c-3.8,3.6-8.1,7.3-12.8,9.3c-22.5,9.8-45.2,19.3-68,28.6c-14.6,5.9-28.8,12.5-40.6,23.2
	c-14.3,13-23.4,29.1-27.6,48c-0.6,2.5-1.2,5.1-1.8,7.7C4,500,2,500,0,500z"/>
</svg>
